<?xml version="1.0" encoding="utf-8"?>
<!-- Generator: Adobe Illustrator 25.0.0, SVG Export Plug-In . SVG Version: 6.00 Build 0)  -->
<svg version="1.1" id="Слой_1" xmlns="http://www.w3.org/2000/svg" xmlns:xlink="http://www.w3.org/1999/xlink" x="0px" y="0px"
	 viewBox="0 0 500 500" style="enable-background:new 0 0 500 500;" xml:space="preserve">
<style type="text/css">
	.st0{display:none;fill:#7EB693;stroke:#7EB693;stroke-width:2;stroke-miterlimit:10;}
	.st1{fill:#7EB693;stroke:#7EB693;stroke-width:2;stroke-miterlimit:10;}
	.st2{fill:none;stroke:#FFFFFF;stroke-width:10;stroke-miterlimit:10;}
</style>
<rect class="st0" width="500" height="500"/>
<circle class="st1" cx="250" cy="250" r="250"/>
<g>
	<path class="st2" d="M140.1,340h111.8h111.8"/>
	<path class="st2" d="M165.3,381.3h86.5h86.5"/>
	<path class="st2" d="M248.7,80v44.9v44.9"/>
	<path class="st2" d="M249.1,165.2v169.4"/>
	<path class="st2" d="M320,99.6l-70.9,71"/>
	<path class="st2" d="M347.3,126.9l-98.1,98.4"/>
	<path class="st2" d="M363.6,170.6L249.1,279.9"/>
	<path class="st2" d="M369.1,219.8L249.1,340"/>
	<path class="st2" d="M369.1,274.5L303.7,340"/>
	<path class="st2" d="M134.6,274.5l65.4,65.6"/>
	<path class="st2" d="M183.7,99.6l65.4,71"/>
	<path class="st2" d="M156.4,126.9l92.7,98.4"/>
	<path class="st2" d="M140.1,165.2l109.1,114.8"/>
	<path class="st2" d="M134.6,214.3l114.5,120.2"/>
	<path class="st2" d="M251.9,422c-64.7,0-117.2-54.2-117.2-121V198.7c0-66.8,52.5-121,117.2-121c64.8,0,117.2,54.2,117.2,121V301
		C369.1,367.8,316.6,422,251.9,422z"/>
</g>
</svg>
