<?xml version="1.0" standalone="no"?>
<!DOCTYPE svg PUBLIC "-//W3C//DTD SVG 20010904//EN"
 "http://www.w3.org/TR/2001/REC-SVG-20010904/DTD/svg10.dtd">
<svg version="1.0" xmlns="http://www.w3.org/2000/svg"
 width="700.000000pt" height="700.000000pt" viewBox="0 0 700.000000 700.000000"
 preserveAspectRatio="xMidYMid meet">
<metadata>
Created by potrace 1.14, written by Peter Selinger 2001-2017
</metadata>
<g transform="translate(0.000000,700.000000) scale(0.100000,-0.100000)"
fill="#000000" stroke="none">
<path d="M3010 6980 c-633 -93 -1213 -343 -1705 -736 -141 -113 -436 -407
-549 -549 -395 -495 -645 -1078 -736 -1715 -26 -181 -29 -742 -4 -932 136
-1060 755 -2004 1678 -2561 374 -225 762 -369 1226 -453 135 -25 170 -27 520
-31 406 -5 483 0 751 53 943 183 1797 779 2303 1606 240 392 389 791 473 1263
28 159 28 164 28 575 0 411 0 416 -28 575 -109 612 -347 1147 -723 1620 -113
143 -429 457 -566 563 -519 402 -1098 645 -1731 727 -179 23 -768 20 -937 -5z
m845 -1030 c524 -111 957 -449 1195 -935 101 -204 158 -407 180 -640 13 -144
13 -1608 0 -1746 -42 -431 -213 -801 -505 -1095 -129 -131 -238 -216 -368
-289 -621 -351 -1366 -282 -1913 178 -306 256 -514 611 -596 1019 l-23 113 0
950 0 950 23 110 c101 480 377 891 772 1147 201 131 415 212 665 253 132 21
437 13 570 -15z"/>
<path d="M3296 5824 c-114 -17 -218 -46 -331 -91 -94 -37 -275 -133 -275 -146
0 -4 81 -95 180 -202 99 -107 261 -283 360 -390 l180 -195 0 520 c0 410 -3
520 -12 519 -7 -1 -53 -7 -102 -15z"/>
<path d="M3550 5309 l0 -534 407 407 c389 389 407 408 388 423 -37 28 -259
133 -335 159 -102 34 -260 65 -369 73 l-91 6 0 -534z"/>
<path d="M2423 5366 c-74 -75 -133 -141 -131 -145 2 -4 255 -275 563 -602
l560 -594 3 273 c1 150 -1 279 -5 286 -13 23 -834 911 -845 915 -6 2 -71 -58
-145 -133z"/>
<path d="M4017 5042 l-457 -457 0 -285 0 -285 601 602 601 601 -23 34 c-34 48
-237 248 -251 248 -7 0 -219 -206 -471 -458z"/>
<path d="M4197 4456 l-637 -645 2 -279 3 -280 737 704 737 704 -15 50 c-36
123 -162 390 -184 390 -3 0 -293 -290 -643 -644z"/>
<path d="M2187 5067 c-29 -44 -90 -173 -124 -261 l-34 -89 64 -66 c35 -36 326
-343 647 -681 320 -338 605 -637 631 -665 l49 -50 0 280 0 280 -601 638 c-330
350 -604 637 -609 637 -4 0 -14 -10 -23 -23z"/>
<path d="M1987 4534 c-16 -53 -27 -193 -27 -344 l0 -168 728 -763 727 -764 3
273 c1 150 -1 279 -5 286 -5 7 -303 323 -663 702 -360 379 -678 713 -706 743
-44 47 -52 52 -57 35z"/>
<path d="M4313 3772 l-753 -717 0 -320 0 -320 771 770 771 770 -6 220 c-6 220
-13 315 -25 315 -3 0 -345 -323 -758 -718z"/>
<path d="M1960 3500 l0 -315 433 -438 432 -438 284 3 284 3 -643 675 c-353
371 -675 709 -716 750 l-74 75 0 -315z"/>
<path d="M4375 3030 l-720 -720 285 0 285 0 438 438 437 438 0 282 c0 155 -1
282 -3 282 -1 0 -326 -324 -722 -720z"/>
<path d="M1963 2765 c3 -121 10 -240 16 -265 6 -25 18 -78 28 -117 l16 -73
298 0 c165 0 299 3 299 8 0 4 -149 156 -331 337 l-331 330 5 -220z"/>
<path d="M4760 2645 l-335 -335 302 0 302 0 11 38 c29 103 52 279 57 450 3
100 4 182 2 182 -2 0 -155 -151 -339 -335z"/>
<path d="M2080 2161 c0 -37 120 -253 202 -363 l50 -68 1193 0 1193 0 34 43
c69 83 182 276 218 373 l10 24 -1450 0 c-861 0 -1450 -4 -1450 -9z"/>
<path d="M2515 1544 c84 -75 269 -194 383 -244 213 -96 391 -133 627 -133 189
0 307 18 475 73 192 63 400 180 530 299 l55 50 -1060 0 -1060 0 50 -45z"/>
</g>
</svg>
