<?xml version="1.0" encoding="utf-8"?>
<!-- Generator: Adobe Illustrator 25.0.0, SVG Export Plug-In . SVG Version: 6.00 Build 0)  -->
<svg version="1.1" id="Слой_1" xmlns="http://www.w3.org/2000/svg" xmlns:xlink="http://www.w3.org/1999/xlink" x="0px" y="0px"
	 viewBox="0 0 200 56" style="enable-background:new 0 0 200 56;" xml:space="preserve">
<style type="text/css">
	.st0{clip-path:url(#SVGID_2_);}
	.st1{fill:#274C5B;}
	.st2{fill:none;stroke:#7EB693;stroke-width:2;stroke-miterlimit:10;}
</style>
<g>
	<defs>
		<rect id="SVGID_1_" width="200" height="56"/>
	</defs>
	<clipPath id="SVGID_2_">
		<use xlink:href="#SVGID_1_"  style="overflow:visible;"/>
	</clipPath>
	<g class="st0">
		<path class="st1" d="M76.3,14.8c-1.1-1.2-2.5-2-4-2.6c-1.6-0.6-3.3-0.9-5.2-0.9c-1.9,0-3.6,0.3-5.2,0.9c-1.6,0.6-2.9,1.5-4,2.6
			c-1.1,1.2-2,2.5-2.6,4.2c-0.6,1.6-0.9,3.5-0.9,5.5v1.3c0,2.1,0.3,3.9,0.9,5.5c0.6,1.6,1.5,3,2.7,4.2c1.1,1.1,2.5,2,4,2.6
			c1.6,0.6,3.3,0.9,5.2,0.9c1.9,0,3.6-0.3,5.2-0.9c1.6-0.6,2.9-1.5,4-2.6c1.1-1.2,2-2.5,2.6-4.2c0.6-1.6,0.9-3.5,0.9-5.5v-1.3
			c0-2.1-0.3-3.9-0.9-5.5C78.4,17.4,77.5,16,76.3,14.8z M73.7,25.8c0,1.4-0.1,2.7-0.4,3.8c-0.3,1.1-0.7,2-1.3,2.8
			c-0.5,0.7-1.2,1.3-2,1.7c-0.8,0.4-1.7,0.6-2.8,0.6c-1,0-2-0.2-2.8-0.6c-0.8-0.4-1.5-0.9-2.1-1.7c-0.6-0.8-1-1.7-1.3-2.8
			c-0.3-1.1-0.4-2.4-0.4-3.8v-1.3c0-1.4,0.1-2.7,0.4-3.8c0.3-1.1,0.7-2,1.3-2.7c0.6-0.7,1.2-1.3,2-1.7c0.8-0.4,1.7-0.6,2.8-0.6
			c1,0,2,0.2,2.8,0.6c0.8,0.4,1.5,0.9,2.1,1.7c0.6,0.7,1,1.7,1.3,2.7c0.3,1.1,0.4,2.4,0.4,3.8V25.8z"/>
		<path class="st1" d="M112.9,20.5c-0.6-0.6-1.2-1.2-2-1.5c-1-0.5-2.2-0.7-3.7-0.7c-1.4,0-2.7,0.2-3.8,0.7c-1.1,0.5-2.1,1.2-2.8,2.1
			c-0.8,0.9-1.4,2-1.8,3.2c-0.4,1.2-0.6,2.6-0.6,4.2v0.4c0,1.5,0.2,2.8,0.6,4c0.4,1.2,1,2.3,1.8,3.2c0.8,0.9,1.7,1.6,2.8,2.1
			c1.1,0.5,2.4,0.8,3.7,0.8c1.4,0,2.6-0.2,3.5-0.7c0.7-0.4,1.3-0.8,1.9-1.4V38c0,1-0.2,1.8-0.6,2.4c-0.4,0.7-1,1.2-1.7,1.5
			c-0.7,0.4-1.6,0.5-2.7,0.5c-1.1,0-2.1-0.2-3-0.6c-0.9-0.4-1.7-1-2.4-1.7l-2.6,3.2c0.6,0.7,1.4,1.3,2.3,1.8c0.9,0.5,1.9,0.8,3,1
			c1,0.2,2,0.3,3,0.3c2.1,0,4-0.3,5.6-1c1.6-0.7,2.9-1.6,3.7-2.9c0.9-1.3,1.4-2.8,1.4-4.7V18.6h-5.4L112.9,20.5z M111.3,34.2
			c-0.7,0.4-1.6,0.6-2.7,0.6c-0.8,0-1.5-0.1-2-0.4c-0.6-0.3-1-0.7-1.4-1.3c-0.4-0.6-0.6-1.2-0.8-1.9c-0.2-0.7-0.3-1.5-0.3-2.3v-0.4
			c0-0.9,0.1-1.6,0.3-2.4c0.2-0.7,0.5-1.4,0.8-1.9c0.4-0.5,0.9-1,1.4-1.3c0.6-0.3,1.3-0.5,2-0.5c0.8,0,1.5,0.1,2.1,0.4
			c0.6,0.2,1.1,0.6,1.4,1c0.1,0.2,0.2,0.3,0.3,0.5V33C112.2,33.5,111.8,33.9,111.3,34.2z"/>
		<path class="st1" d="M94.8,18.2c-1,0-2,0.2-2.8,0.7c-0.8,0.4-1.5,1.1-2.1,1.9c-0.1,0.1-0.1,0.2-0.2,0.3l-0.2-2.5H84v20.1h5.9V25.5
			c0.2-0.4,0.4-0.8,0.8-1.1c0.4-0.4,0.9-0.6,1.5-0.8c0.6-0.2,1.3-0.3,2.2-0.3c0.3,0,0.7,0,1.1,0.1c0.4,0,0.8,0.1,1,0.1l0.1-5
			c-0.2-0.1-0.5-0.1-0.8-0.2C95.4,18.2,95.1,18.2,94.8,18.2z"/>
		<path class="st1" d="M162.8,19.9c-0.6-0.6-1.4-1-2.2-1.3c-0.9-0.3-1.8-0.4-2.9-0.4c-1.3,0-2.5,0.2-3.6,0.7c-1.1,0.4-2,1.1-2.7,1.9
			c0,0-0.1,0.1-0.1,0.1l-0.2-2.4h-5.6v20.1h5.9V24.5c0.1-0.1,0.2-0.3,0.3-0.4c0.4-0.5,0.9-0.9,1.4-1.2c0.6-0.3,1.3-0.4,2.1-0.4
			c0.8,0,1.4,0.1,1.9,0.3c0.5,0.2,0.9,0.5,1.2,1c0.3,0.5,0.4,1.2,0.4,2.1v12.8h6V25.9c0-1.4-0.2-2.6-0.5-3.6
			C163.9,21.3,163.4,20.5,162.8,19.9z"/>
		<path class="st1" d="M185.6,26.1c0.1-0.7,0.3-1.4,0.6-1.9c0.3-0.6,0.7-1,1.3-1.3c0.5-0.3,1.3-0.5,2.1-0.5c0.8,0,1.5,0.2,2,0.5
			c0.6,0.3,1,0.8,1.3,1.3c0.3,0.5,0.5,1.2,0.5,1.8h5.6c0-1.6-0.4-3-1.2-4.1c-0.8-1.2-1.9-2.1-3.3-2.7c-1.4-0.6-3-0.9-4.8-0.9
			c-1.7,0-3.2,0.3-4.5,0.8c-1.3,0.5-2.3,1.2-3.2,2.2c-0.9,0.9-1.5,2-1.9,3.2c-0.4,1.2-0.6,2.5-0.6,4v0.5c0,1.4,0.2,2.7,0.6,4
			c0.4,1.2,1.1,2.3,1.9,3.2c0.9,0.9,1.9,1.6,3.2,2.2c1.3,0.5,2.8,0.8,4.5,0.8c1.7,0,3.3-0.3,4.7-0.9c1.4-0.6,2.5-1.5,3.3-2.6
			c0.8-1.1,1.2-2.4,1.3-3.8h-5.6c0,0.6-0.2,1.2-0.5,1.7c-0.3,0.5-0.8,0.8-1.3,1.1c-0.6,0.2-1.2,0.4-1.9,0.4c-0.9,0-1.6-0.2-2.1-0.5
			c-0.5-0.3-1-0.8-1.3-1.3c-0.3-0.6-0.5-1.2-0.6-1.9c-0.1-0.7-0.2-1.5-0.2-2.2v-0.5C185.4,27.6,185.5,26.8,185.6,26.1z"/>
		<rect x="169.6" y="18.6" class="st1" width="5.9" height="20.1"/>
		<path class="st1" d="M141.1,33.8v-8.6c0-1.6-0.4-2.9-1.2-3.9c-0.8-1-1.8-1.8-3.2-2.3c-1.3-0.5-2.9-0.8-4.6-0.8
			c-1.4,0-2.7,0.2-3.9,0.5c-1.2,0.3-2.1,0.8-3,1.4c-0.8,0.6-1.5,1.3-1.9,2c-0.4,0.8-0.7,1.6-0.7,2.4h5.9c0-0.5,0.1-0.9,0.4-1.3
			c0.3-0.4,0.6-0.7,1.1-0.9c0.5-0.2,1-0.3,1.7-0.3c0.8,0,1.4,0.1,1.9,0.4c0.5,0.3,0.9,0.6,1.1,1.1c0.2,0.5,0.3,1,0.3,1.7v1.2h-2.7
			c-1.7,0-3.2,0.1-4.5,0.4c-1.3,0.3-2.4,0.7-3.2,1.3c-0.9,0.6-1.5,1.2-1.9,2.1c-0.4,0.8-0.7,1.8-0.7,2.8c0,1.2,0.3,2.2,1,3.1
			c0.7,0.9,1.6,1.6,2.7,2.1c1.2,0.5,2.4,0.8,3.8,0.8c1.1,0,2.1-0.1,2.9-0.4c0.8-0.3,1.5-0.7,2.1-1.2c0.3-0.2,0.5-0.4,0.7-0.7
			c0.1,0.7,0.4,1.4,0.6,1.9h6v-0.3c-0.3-0.5-0.5-1.1-0.7-1.8C141.1,35.8,141.1,34.9,141.1,33.8z M133.3,34.6
			c-0.7,0.3-1.4,0.5-2.3,0.5c-0.6,0-1.1-0.1-1.5-0.3c-0.4-0.2-0.8-0.5-1-0.9c-0.2-0.4-0.3-0.8-0.3-1.2s0.1-0.9,0.2-1.3
			c0.2-0.4,0.5-0.7,0.8-1c0.4-0.3,0.8-0.5,1.4-0.7c0.6-0.2,1.3-0.2,2-0.2h2.5V33c-0.1,0.1-0.2,0.3-0.3,0.4
			C134.5,33.8,134,34.2,133.3,34.6z"/>
		<path class="st1" d="M172.5,10.7c-1,0-1.8,0.3-2.4,0.8c-0.6,0.5-0.9,1.2-0.9,1.9s0.3,1.4,0.9,1.9c0.6,0.5,1.4,0.8,2.4,0.8
			c1,0,1.8-0.3,2.4-0.8c0.6-0.5,0.9-1.2,0.9-1.9s-0.3-1.4-0.9-1.9C174.3,10.9,173.5,10.7,172.5,10.7z"/>
		<path class="st2" d="M3.2,42.1h19.3h19.3"/>
		<path class="st2" d="M7.6,48.5h15h15"/>
		<path class="st2" d="M22,1.5v7v7"/>
		<path class="st2" d="M22.1,14.8v26.4"/>
		<path class="st2" d="M34.4,4.6L22.1,15.6"/>
		<path class="st2" d="M39.1,8.8l-17,15.3"/>
		<path class="st2" d="M41.9,15.6L22.1,32.7"/>
		<path class="st2" d="M42.8,23.3L22.1,42.1"/>
		<path class="st2" d="M42.8,31.8L31.5,42.1"/>
		<path class="st2" d="M2.3,31.8l11.3,10.2"/>
		<path class="st2" d="M10.8,4.6l11.3,11.1"/>
		<path class="st2" d="M6.1,8.8l16,15.3"/>
		<path class="st2" d="M3.2,14.8l18.9,17.9"/>
		<path class="st2" d="M2.3,22.5l19.8,18.8"/>
		<path class="st2" d="M22.6,54.9C11.4,54.9,2.3,46.4,2.3,36V20c0-10.4,9.1-18.9,20.3-18.9c11.2,0,20.3,8.5,20.3,18.9v16
			C42.8,46.4,33.8,54.9,22.6,54.9z"/>
	</g>
</g>
</svg>
